<svg width="640" height="420" viewBox="0 0 640 420" fill="none" xmlns="http://www.w3.org/2000/svg">
  <defs>
    <linearGradient id="g1" x1="0" y1="0" x2="1" y2="1">
      <stop stop-color="#12C6E8" offset="0"/>
      <stop stop-color="#7C3AED" offset="1"/>
    </linearGradient>
    <linearGradient id="g2" x1="1" y1="0" x2="0" y2="1">
      <stop stop-color="#0EA5E9" offset="0"/>
      <stop stop-color="#10B981" offset="1"/>
    </linearGradient>
    <filter id="shadow" x="-20%" y="-20%" width="140%" height="140%">
      <feGaussianBlur stdDeviation="20" result="blur"/>
      <feMerge>
        <feMergeNode in="blur"/>
        <feMergeNode in="SourceGraphic"/>
      </feMerge>
    </filter>
  </defs>
  <rect width="640" height="420" rx="22" fill="#0B1021"/>
  <circle cx="120" cy="90" r="80" fill="url(#g1)" opacity="0.55" filter="url(#shadow)"/>
  <circle cx="520" cy="320" r="120" fill="url(#g2)" opacity="0.45" filter="url(#shadow)"/>
  <rect x="120" y="130" width="420" height="220" rx="18" fill="#0F172A" stroke="#1F2A44" stroke-width="2"/>
  <rect x="150" y="160" width="360" height="30" rx="10" fill="#111827" stroke="#24304A" stroke-width="1.5"/>
  <rect x="150" y="210" width="200" height="28" rx="9" fill="#0EA5E9" opacity="0.9"/>
  <rect x="150" y="250" width="260" height="18" rx="9" fill="#1F2937"/>
  <rect x="150" y="280" width="220" height="18" rx="9" fill="#1F2937"/>
  <rect x="150" y="310" width="180" height="18" rx="9" fill="#1F2937"/>
  <circle cx="470" cy="224" r="34" fill="#111827" stroke="#24304A" stroke-width="1.5"/>
  <path d="M480 216L466 232L454 223" stroke="#10B981" stroke-width="4" stroke-linecap="round" stroke-linejoin="round"/>
  <text x="150" y="153" fill="#E2E8F0" font-family="Space Grotesk, sans-serif" font-size="18" font-weight="600">Vullnet • Thirrje në progres</text>
  <text x="420" y="350" fill="#94A3B8" font-family="Space Grotesk, sans-serif" font-size="12">Ilustrim komunitar</text>
</svg>
